<svg version="1.1" viewBox="0.0 0.0 1728.0 480.0" fill="none" stroke="none" stroke-linecap="square" stroke-miterlimit="10" xmlns:xlink="http://www.w3.org/1999/xlink" xmlns="http://www.w3.org/2000/svg"><clipPath id="p.0"><path d="m0 0l1728.0 0l0 480.0l-1728.0 0l0 -480.0z" clip-rule="nonzero"/></clipPath><g clip-path="url(#p.0)"><path fill="#000000" fill-opacity="0.0" d="m0 0l1728.0 0l0 480.0l-1728.0 0z" fill-rule="evenodd"/><path fill="#08868b" d="m0 0l1728.0 0l0 143.02362l-1728.0 0z" fill-rule="evenodd"/><g filter="url(#shadowFilter-p.1)"><use xlink:href="#p.1" transform="matrix(1.0 0.0 0.0 1.0 19.015196325459318 17.731957480314954)"/></g><defs><filter id="shadowFilter-p.1" filterUnits="userSpaceOnUse"><feGaussianBlur in="SourceAlpha" stdDeviation="2.0" result="blur"/><feComponentTransfer in="blur" color-interpolation-filters="sRGB"><feFuncR type="linear" slope="0" intercept="0.0"/><feFuncG type="linear" slope="0" intercept="0.0"/><feFuncB type="linear" slope="0" intercept="0.0"/><feFuncA type="linear" slope="0.5" intercept="0"/></feComponentTransfer></filter></defs><g id="p.1"><path fill="#eee436" d="m253.12326 -14.9430065l0 27.618298l0 0c0 7.1049585 -2.8224335 13.918916 -7.846405 18.942879c-5.0239563 5.023962 -11.837921 7.8463955 -18.942871 7.8463955l-246.65955 0c-3.7384033E-4 0 -6.7710876E-4 -3.0136108E-4 -6.7710876E-4 -6.752014E-4l6.7710876E-4 -81.196175l0 0c0 -3.7384033E-4 3.0136108E-4 -6.752014E-4 6.752014E-4 -6.752014E-4l246.65887 6.752014E-4l0 0c14.795303 0 26.789276 11.993969 26.789276 26.789278z" fill-rule="evenodd"/></g><g filter="url(#shadowFilter-p.2)"><use xlink:href="#p.2" transform="matrix(1.0 0.0 0.0 1.0 19.015196325459314 17.731957480314946)"/></g><defs><filter id="shadowFilter-p.2" filterUnits="userSpaceOnUse"><feGaussianBlur in="SourceAlpha" stdDeviation="2.0" result="blur"/><feComponentTransfer in="blur" color-interpolation-filters="sRGB"><feFuncR type="linear" slope="0" intercept="0.0"/><feFuncG type="linear" slope="0" intercept="0.0"/><feFuncB type="linear" slope="0" intercept="0.0"/><feFuncA type="linear" slope="0.5" intercept="0"/></feComponentTransfer></filter></defs><g id="p.2"><path fill="#eee436" d="m557.91925 25.417324l35.310913 0l0 0c6.084839 0 11.920471 2.4172 16.223083 6.719845c4.3026733 4.302643 6.7198486 10.138283 6.7198486 16.223137l0 166.7893c0 3.6621094E-4 -3.0517578E-4 6.713867E-4 -6.713867E-4 6.713867E-4l-81.19617 -6.713867E-4l0 0c-3.6621094E-4 0 -6.713867E-4 -3.0517578E-4 -6.713867E-4 -6.866455E-4l6.713867E-4 -166.78862l0 0c0 -12.671059 10.271912 -22.942982 22.942993 -22.942982z" fill-rule="evenodd"/></g><g filter="url(#shadowFilter-p.3)"><use xlink:href="#p.3" transform="matrix(1.0 0.0 0.0 1.0 19.015196325459314 17.731957480314982)"/></g><defs><filter id="shadowFilter-p.3" filterUnits="userSpaceOnUse"><feGaussianBlur in="SourceAlpha" stdDeviation="2.0" result="blur"/><feComponentTransfer in="blur" color-interpolation-filters="sRGB"><feFuncR type="linear" slope="0" intercept="0.0"/><feFuncG type="linear" slope="0" intercept="0.0"/><feFuncB type="linear" slope="0" intercept="0.0"/><feFuncA type="linear" slope="0.5" intercept="0"/></feComponentTransfer></filter></defs><g id="p.3"><path fill="#08868b" d="m597.6864 416.56693l-44.2442 0l0 0c-4.9002075 0 -9.599731 -1.9465942 -13.064697 -5.4115906c-3.4650269 -3.4649963 -5.411621 -8.16452 -5.411621 -13.064758l0 -183.88585c0 -3.8146973E-4 3.0517578E-4 -6.866455E-4 6.713867E-4 -6.866455E-4l81.19617 6.866455E-4l0 0c3.6621094E-4 0 6.713867E-4 3.0517578E-4 6.713867E-4 6.713867E-4l-6.713867E-4 183.88518l0 0c0 10.204224 -8.272156 18.476349 -18.476318 18.476349z" fill-rule="evenodd"/></g><g filter="url(#shadowFilter-p.4)"><use xlink:href="#p.4" transform="matrix(1.0 0.0 0.0 1.0 19.015196325459314 17.731957480314946)"/></g><defs><filter id="shadowFilter-p.4" filterUnits="userSpaceOnUse"><feGaussianBlur in="SourceAlpha" stdDeviation="2.0" result="blur"/><feComponentTransfer in="blur" color-interpolation-filters="sRGB"><feFuncR type="linear" slope="0" intercept="0.0"/><feFuncG type="linear" slope="0" intercept="0.0"/><feFuncB type="linear" slope="0" intercept="0.0"/><feFuncA type="linear" slope="0.5" intercept="0"/></feComponentTransfer></filter></defs><g id="p.4"><path fill="#ff79ca" d="m115.933655 299.55905l-35.310883 0l0 0c-6.084854 0 -11.920494 -2.4172058 -16.223137 -6.7198486c-4.3026466 -4.302643 -6.719845 -10.138275 -6.719845 -16.223145l0 -318.34833c0 -3.7384033E-4 3.0136108E-4 -6.752014E-4 6.752014E-4 -6.752014E-4l81.19618 6.752014E-4l0 0c3.6621094E-4 0 6.713867E-4 3.0517578E-4 6.713867E-4 6.790161E-4l-6.713867E-4 318.34766l0 0c0 12.671082 -10.271927 22.942993 -22.942993 22.942993z" fill-rule="evenodd"/></g><g filter="url(#shadowFilter-p.5)"><use xlink:href="#p.5" transform="matrix(1.0 0.0 0.0 1.0 19.015196325459314 17.731957480314946)"/></g><defs><filter id="shadowFilter-p.5" filterUnits="userSpaceOnUse"><feGaussianBlur in="SourceAlpha" stdDeviation="2.0" result="blur"/><feComponentTransfer in="blur" color-interpolation-filters="sRGB"><feFuncR type="linear" slope="0" intercept="0.0"/><feFuncG type="linear" slope="0" intercept="0.0"/><feFuncB type="linear" slope="0" intercept="0.0"/><feFuncA type="linear" slope="0.5" intercept="0"/></feComponentTransfer></filter></defs><g id="p.5"><path fill="#ff79ca" d="m318.31424 225.87138l-35.310883 0l0 0c-6.0848694 0 -11.920502 -2.4171906 -16.223145 -6.7198334c-4.302643 -4.302643 -6.7198486 -10.13829 -6.7198486 -16.223145l0 -245.9704c0 -3.7384033E-4 3.0517578E-4 -6.752014E-4 6.713867E-4 -6.752014E-4l81.1962 6.752014E-4l0 0c3.6621094E-4 0 6.713867E-4 3.0517578E-4 6.713867E-4 6.790161E-4l-6.713867E-4 245.96973l0 0c0 12.671066 -10.271942 22.942978 -22.942993 22.942978z" fill-rule="evenodd"/></g><g filter="url(#shadowFilter-p.6)"><use xlink:href="#p.6" transform="matrix(1.0 0.0 0.0 1.0 10.181002099737507 18.36701391076114)"/></g><defs><filter id="shadowFilter-p.6" filterUnits="userSpaceOnUse"><feGaussianBlur in="SourceAlpha" stdDeviation="2.0" result="blur"/><feComponentTransfer in="blur" color-interpolation-filters="sRGB"><feFuncR type="linear" slope="0" intercept="0.0"/><feFuncG type="linear" slope="0" intercept="0.0"/><feFuncB type="linear" slope="0" intercept="0.0"/><feFuncA type="linear" slope="0.5" intercept="0"/></feComponentTransfer></filter></defs><g id="p.6"><path fill="#08868b" d="m439.89856 138.47298l0 0c0 -36.711708 31.516327 -66.472435 70.39371 -66.472435l0 0c18.669586 0 36.574493 7.0033264 49.77585 19.46933c13.201416 12.466003 20.617859 29.373528 20.617859 47.003105l0 0c0 36.711716 -31.516357 66.47244 -70.39371 66.47244l0 0c-38.87738 0 -70.39371 -29.760727 -70.39371 -66.47244z" fill-rule="evenodd"/></g><g filter="url(#shadowFilter-p.7)"><use xlink:href="#p.7" transform="matrix(1.0 0.0 0.0 1.0 10.181002099737544 18.36701391076114)"/></g><defs><filter id="shadowFilter-p.7" filterUnits="userSpaceOnUse"><feGaussianBlur in="SourceAlpha" stdDeviation="2.0" result="blur"/><feComponentTransfer in="blur" color-interpolation-filters="sRGB"><feFuncR type="linear" slope="0" intercept="0.0"/><feFuncG type="linear" slope="0" intercept="0.0"/><feFuncB type="linear" slope="0" intercept="0.0"/><feFuncA type="linear" slope="0.5" intercept="0"/></feComponentTransfer></filter></defs><g id="p.7"><path fill="#eee436" d="m299.11023 139.85094l0 0c0 -36.711716 31.516327 -66.47244 70.39368 -66.47244l0 0c18.669586 0 36.574493 7.0033264 49.77588 19.46933c13.2013855 12.466003 20.617828 29.373528 20.617828 47.003113l0 0c0 36.711716 -31.516327 66.47244 -70.39371 66.47244l0 0c-38.87735 0 -70.39368 -29.760727 -70.39368 -66.47244z" fill-rule="evenodd"/></g><g filter="url(#shadowFilter-p.8)"><use xlink:href="#p.8" transform="matrix(1.0 0.0 0.0 1.0 19.01519632545939 17.731957480314946)"/></g><defs><filter id="shadowFilter-p.8" filterUnits="userSpaceOnUse"><feGaussianBlur in="SourceAlpha" stdDeviation="2.0" result="blur"/><feComponentTransfer in="blur" color-interpolation-filters="sRGB"><feFuncR type="linear" slope="0" intercept="0.0"/><feFuncG type="linear" slope="0" intercept="0.0"/><feFuncB type="linear" slope="0" intercept="0.0"/><feFuncA type="linear" slope="0.5" intercept="0"/></feComponentTransfer></filter></defs><g id="p.8"><path fill="#08868b" d="m733.71265 275.25986l-44.2442 0l0 0c-4.9002075 0 -9.599731 -1.9466248 -13.064697 -5.411621c-3.4650269 -3.4649658 -5.411621 -8.16452 -5.411621 -13.064728l0 -183.88586c0 -3.7384033E-4 3.0517578E-4 -6.790161E-4 6.713867E-4 -6.790161E-4l81.19617 6.790161E-4l0 0c3.6621094E-4 0 6.713867E-4 3.0517578E-4 6.713867E-4 6.790161E-4l-6.713867E-4 183.8852l0 0c0 10.204193 -8.272156 18.476349 -18.476318 18.476349z" fill-rule="evenodd"/></g><g filter="url(#shadowFilter-p.9)"><use xlink:href="#p.9" transform="matrix(1.0 0.0 0.0 1.0 10.181002099737507 18.36701391076116)"/></g><defs><filter id="shadowFilter-p.9" filterUnits="userSpaceOnUse"><feGaussianBlur in="SourceAlpha" stdDeviation="2.0" result="blur"/><feComponentTransfer in="blur" color-interpolation-filters="sRGB"><feFuncR type="linear" slope="0" intercept="0.0"/><feFuncG type="linear" slope="0" intercept="0.0"/><feFuncB type="linear" slope="0" intercept="0.0"/><feFuncA type="linear" slope="0.5" intercept="0"/></feComponentTransfer></filter></defs><g id="p.9"><path fill="#ff79ca" d="m711.25195 71.51235l0 0c0 -36.71171 31.516357 -66.47244 70.39368 -66.47244l0 0c18.669617 0 36.574524 7.0033264 49.77588 19.469328c13.201416 12.4660015 20.617859 29.373526 20.617859 47.003113l0 0c0 36.711716 -31.516357 66.47245 -70.39374 66.47245l0 0c-38.87732 0 -70.39368 -29.760735 -70.39368 -66.47245z" fill-rule="evenodd"/></g><g filter="url(#shadowFilter-p.10)"><use xlink:href="#p.10" transform="matrix(1.0 0.0 0.0 1.0 10.181002099737507 18.36701391076114)"/></g><defs><filter id="shadowFilter-p.10" filterUnits="userSpaceOnUse"><feGaussianBlur in="SourceAlpha" stdDeviation="2.0" result="blur"/><feComponentTransfer in="blur" color-interpolation-filters="sRGB"><feFuncR type="linear" slope="0" intercept="0.0"/><feFuncG type="linear" slope="0" intercept="0.0"/><feFuncB type="linear" slope="0" intercept="0.0"/><feFuncA type="linear" slope="0.5" intercept="0"/></feComponentTransfer></filter></defs><g id="p.10"><path fill="#eee436" d="m641.19684 112.315506l0 0c0 -36.711716 31.516357 -66.47244 70.39368 -66.47244l0 0c18.669617 0 36.574524 7.0033264 49.77588 19.46933c13.201355 12.465996 20.617859 29.37352 20.617859 47.003113l0 0c0 36.711716 -31.516357 66.47244 -70.39374 66.47244l0 0c-38.87732 0 -70.39368 -29.760727 -70.39368 -66.47244z" fill-rule="evenodd"/></g><g filter="url(#shadowFilter-p.11)"><use xlink:href="#p.11" transform="matrix(1.0 0.0 0.0 1.0 19.74654986876646 18.413955643044606)"/></g><defs><filter id="shadowFilter-p.11" filterUnits="userSpaceOnUse"><feGaussianBlur in="SourceAlpha" stdDeviation="2.0" result="blur"/><feComponentTransfer in="blur" color-interpolation-filters="sRGB"><feFuncR type="linear" slope="0" intercept="0.0"/><feFuncG type="linear" slope="0" intercept="0.0"/><feFuncB type="linear" slope="0" intercept="0.0"/><feFuncA type="linear" slope="0.5" intercept="0"/></feComponentTransfer></filter></defs><g id="p.11"><path fill="#ff79ca" d="m913.0683 73.37922l31.743103 0l0 0c6.5579834 0 12.847351 2.6051483 17.484558 7.2423325c4.637146 4.637192 7.2423096 10.926567 7.2423096 17.484543l0 109.69832c0 3.8146973E-4 -3.0517578E-4 6.713867E-4 -6.713867E-4 6.713867E-4l-81.19617 -6.713867E-4l0 0c-3.6621094E-4 0 -6.713867E-4 -3.0517578E-4 -6.713867E-4 -6.713867E-4l6.713867E-4 -109.69765l0 0c0 -13.656273 11.070618 -24.726875 24.726868 -24.726875z" fill-rule="evenodd"/></g><g filter="url(#shadowFilter-p.12)"><use xlink:href="#p.12" transform="matrix(1.0 0.0 0.0 1.0 19.01519632545939 17.731957480314982)"/></g><defs><filter id="shadowFilter-p.12" filterUnits="userSpaceOnUse"><feGaussianBlur in="SourceAlpha" stdDeviation="2.0" result="blur"/><feComponentTransfer in="blur" color-interpolation-filters="sRGB"><feFuncR type="linear" slope="0" intercept="0.0"/><feFuncG type="linear" slope="0" intercept="0.0"/><feFuncB type="linear" slope="0" intercept="0.0"/><feFuncA type="linear" slope="0.5" intercept="0"/></feComponentTransfer></filter></defs><g id="p.12"><path fill="#eee436" d="m942.73804 342.2926l-27.618286 0l0 0c-7.1049194 0 -13.918884 -2.8224182 -18.942871 -7.846405c-5.023926 -5.0239563 -7.8463745 -11.837921 -7.8463745 -18.942871l0 -107.635925c0 -3.6621094E-4 3.0517578E-4 -6.713867E-4 6.713867E-4 -6.713867E-4l81.19617 6.713867E-4l0 0c3.6621094E-4 0 6.713867E-4 3.0517578E-4 6.713867E-4 6.866455E-4l-6.713867E-4 107.63524l0 0c0 14.795319 -11.9939575 26.789276 -26.789307 26.789276z" fill-rule="evenodd"/></g><g filter="url(#shadowFilter-p.13)"><use xlink:href="#p.13" transform="matrix(1.0 0.0 0.0 1.0 10.181002099737507 18.36701391076114)"/></g><defs><filter id="shadowFilter-p.13" filterUnits="userSpaceOnUse"><feGaussianBlur in="SourceAlpha" stdDeviation="2.0" result="blur"/><feComponentTransfer in="blur" color-interpolation-filters="sRGB"><feFuncR type="linear" slope="0" intercept="0.0"/><feFuncG type="linear" slope="0" intercept="0.0"/><feFuncB type="linear" slope="0" intercept="0.0"/><feFuncA type="linear" slope="0.5" intercept="0"/></feComponentTransfer></filter></defs><g id="p.13"><path fill="#08868b" d="m1005.8408 128.91393l0 0c0 -36.711708 31.516357 -66.47244 70.39368 -66.47244l0 0c18.669556 0 36.574463 7.00333 49.77588 19.469326c13.201416 12.466003 20.617798 29.373528 20.617798 47.003113l0 0c0 36.711716 -31.516235 66.47244 -70.39368 66.47244l0 0c-38.87732 0 -70.39368 -29.760727 -70.39368 -66.47244z" fill-rule="evenodd"/></g><g filter="url(#shadowFilter-p.14)"><use xlink:href="#p.14" transform="matrix(1.0 0.0 0.0 1.0 10.181002099737507 18.36701391076114)"/></g><defs><filter id="shadowFilter-p.14" filterUnits="userSpaceOnUse"><feGaussianBlur in="SourceAlpha" stdDeviation="2.0" result="blur"/><feComponentTransfer in="blur" color-interpolation-filters="sRGB"><feFuncR type="linear" slope="0" intercept="0.0"/><feFuncG type="linear" slope="0" intercept="0.0"/><feFuncB type="linear" slope="0" intercept="0.0"/><feFuncA type="linear" slope="0.5" intercept="0"/></feComponentTransfer></filter></defs><g id="p.14"><path fill="#eee436" d="m1195.7244 138.47298l0 0c0 -36.711708 31.516357 -66.472435 70.39368 -66.472435l0 0c18.669678 0 36.574585 7.0033264 49.77588 19.46933c13.201416 12.466003 20.61792 29.373528 20.61792 47.003105l0 0c0 36.711716 -31.516357 66.47244 -70.3938 66.47244l0 0c-38.87732 0 -70.39368 -29.760727 -70.39368 -66.47244z" fill-rule="evenodd"/></g><g filter="url(#shadowFilter-p.15)"><use xlink:href="#p.15" transform="matrix(1.0 0.0 0.0 1.0 19.01519632545939 17.731957480314964)"/></g><defs><filter id="shadowFilter-p.15" filterUnits="userSpaceOnUse"><feGaussianBlur in="SourceAlpha" stdDeviation="2.0" result="blur"/><feComponentTransfer in="blur" color-interpolation-filters="sRGB"><feFuncR type="linear" slope="0" intercept="0.0"/><feFuncG type="linear" slope="0" intercept="0.0"/><feFuncB type="linear" slope="0" intercept="0.0"/><feFuncA type="linear" slope="0.5" intercept="0"/></feComponentTransfer></filter></defs><g id="p.15"><path fill="#eee436" d="m1065.7689 83.67125l0 -35.31089l0 0c0 -6.084854 2.4172363 -11.920494 6.7198486 -16.223137c4.3027344 -4.302643 10.138306 -6.719843 16.223145 -6.719843l166.7893 0c3.6621094E-4 0 7.324219E-4 3.0326843E-4 7.324219E-4 6.7710876E-4l-7.324219E-4 81.19617l0 0c0 3.7384033E-4 -2.4414062E-4 6.790161E-4 -6.1035156E-4 6.790161E-4l-166.7887 -6.790161E-4l0 0c-12.6710205 0 -22.942993 -10.271919 -22.942993 -22.942978z" fill-rule="evenodd"/></g><g filter="url(#shadowFilter-p.16)"><use xlink:href="#p.16" transform="matrix(1.0 0.0 0.0 1.0 19.01519632545939 17.731957480314946)"/></g><defs><filter id="shadowFilter-p.16" filterUnits="userSpaceOnUse"><feGaussianBlur in="SourceAlpha" stdDeviation="2.0" result="blur"/><feComponentTransfer in="blur" color-interpolation-filters="sRGB"><feFuncR type="linear" slope="0" intercept="0.0"/><feFuncG type="linear" slope="0" intercept="0.0"/><feFuncB type="linear" slope="0" intercept="0.0"/><feFuncA type="linear" slope="0.5" intercept="0"/></feComponentTransfer></filter></defs><g id="p.16"><path fill="#eee436" d="m1482.6686 253.53806l-35.310913 0l0 0c-6.084839 0 -11.920532 -2.4171906 -16.223145 -6.7198486c-4.3026123 -4.302643 -6.7198486 -10.138275 -6.7198486 -16.22313l0 -290.28537c0 -3.7384033E-4 3.6621094E-4 -6.752014E-4 7.324219E-4 -6.752014E-4l81.19617 6.752014E-4l0 0c3.6621094E-4 0 6.1035156E-4 3.0136108E-4 6.1035156E-4 6.752014E-4l-6.1035156E-4 290.2847l0 0c0 12.671051 -10.271973 22.942978 -22.942993 22.942978z" fill-rule="evenodd"/></g><g filter="url(#shadowFilter-p.17)"><use xlink:href="#p.17" transform="matrix(1.0 0.0 0.0 1.0 19.01519632545939 17.731957480314964)"/></g><defs><filter id="shadowFilter-p.17" filterUnits="userSpaceOnUse"><feGaussianBlur in="SourceAlpha" stdDeviation="2.0" result="blur"/><feComponentTransfer in="blur" color-interpolation-filters="sRGB"><feFuncR type="linear" slope="0" intercept="0.0"/><feFuncG type="linear" slope="0" intercept="0.0"/><feFuncB type="linear" slope="0" intercept="0.0"/><feFuncA type="linear" slope="0.5" intercept="0"/></feComponentTransfer></filter></defs><g id="p.17"><path fill="#08868b" d="m1456.9186 43.90411l0 44.244167l0 0c0 4.9002304 -1.9466553 9.599762 -5.411621 13.064743c-3.4649658 3.4649887 -8.164551 5.411598 -13.064697 5.411598l-183.88586 0c-3.6621094E-4 0 -7.324219E-4 -3.0517578E-4 -7.324219E-4 -6.790161E-4l7.324219E-4 -81.196175l0 0c0 -3.7384033E-4 2.4414062E-4 -6.752014E-4 6.1035156E-4 -6.752014E-4l183.88525 6.752014E-4l0 0c10.204224 0 18.476318 8.272142 18.476318 18.476343z" fill-rule="evenodd"/></g><g filter="url(#shadowFilter-p.18)"><use xlink:href="#p.18" transform="matrix(1.0 0.0 0.0 1.0 19.01519632545939 17.731957480314982)"/></g><defs><filter id="shadowFilter-p.18" filterUnits="userSpaceOnUse"><feGaussianBlur in="SourceAlpha" stdDeviation="2.0" result="blur"/><feComponentTransfer in="blur" color-interpolation-filters="sRGB"><feFuncR type="linear" slope="0" intercept="0.0"/><feFuncG type="linear" slope="0" intercept="0.0"/><feFuncB type="linear" slope="0" intercept="0.0"/><feFuncA type="linear" slope="0.5" intercept="0"/></feComponentTransfer></filter></defs><g id="p.18"><path fill="#08868b" d="m1636.3904 350.4147l-35.310913 0l0 0c-6.084839 0 -11.920532 -2.4172058 -16.223145 -6.7198486c-4.3026123 -4.302643 -6.7198486 -10.138275 -6.7198486 -16.223145l0 -377.84442c0 -3.7384033E-4 3.6621094E-4 -6.752014E-4 7.324219E-4 -6.752014E-4l81.19617 6.752014E-4l0 0c3.6621094E-4 0 6.1035156E-4 3.0136108E-4 6.1035156E-4 6.752014E-4l-6.1035156E-4 377.84375l0 0c0 12.671051 -10.271973 22.942993 -22.942993 22.942993z" fill-rule="evenodd"/></g><g filter="url(#shadowFilter-p.19)"><use xlink:href="#p.19" transform="matrix(1.0 0.0 0.0 1.0 10.18100209973766 18.36701391076114)"/></g><defs><filter id="shadowFilter-p.19" filterUnits="userSpaceOnUse"><feGaussianBlur in="SourceAlpha" stdDeviation="2.0" result="blur"/><feComponentTransfer in="blur" color-interpolation-filters="sRGB"><feFuncR type="linear" slope="0" intercept="0.0"/><feFuncG type="linear" slope="0" intercept="0.0"/><feFuncB type="linear" slope="0" intercept="0.0"/><feFuncA type="linear" slope="0.5" intercept="0"/></feComponentTransfer></filter></defs><g id="p.19"><path fill="#ff79ca" d="m1478.0288 120.284004l0 0c0 -36.711708 31.516357 -66.47244 70.3938 -66.47244l0 0c18.669556 0 36.574463 7.0033264 49.775757 19.469326c13.201416 12.466003 20.61792 29.373528 20.61792 47.003113l0 0c0 36.711723 -31.516357 66.47245 -70.39368 66.47245l0 0c-38.87744 0 -70.3938 -29.760727 -70.3938 -66.47245z" fill-rule="evenodd"/></g><g filter="url(#shadowFilter-p.20)"><use xlink:href="#p.20" transform="matrix(1.0 0.0 0.0 1.0 19.01519632545939 17.731957480314964)"/></g><defs><filter id="shadowFilter-p.20" filterUnits="userSpaceOnUse"><feGaussianBlur in="SourceAlpha" stdDeviation="2.0" result="blur"/><feComponentTransfer in="blur" color-interpolation-filters="sRGB"><feFuncR type="linear" slope="0" intercept="0.0"/><feFuncG type="linear" slope="0" intercept="0.0"/><feFuncB type="linear" slope="0" intercept="0.0"/><feFuncA type="linear" slope="0.5" intercept="0"/></feComponentTransfer></filter></defs><g id="p.20"><path fill="#eee436" d="m1676.1863 85.32096l0 -27.618298l0 0c0 -7.1049576 2.8225098 -13.918915 7.8464355 -18.942879c5.023926 -5.023964 11.837891 -7.8463993 18.942871 -7.8463993l155.32104 0c3.6621094E-4 0 6.1035156E-4 3.0326843E-4 6.1035156E-4 6.7710876E-4l-6.1035156E-4 81.196175l0 0c0 3.7384033E-4 -3.6621094E-4 6.790161E-4 -7.324219E-4 6.790161E-4l-155.32031 -6.790161E-4l0 0c-14.795288 0 -26.789307 -11.993965 -26.789307 -26.789276z" fill-rule="evenodd"/></g><g filter="url(#shadowFilter-p.21)"><use xlink:href="#p.21" transform="matrix(1.0 0.0 0.0 1.0 19.01519632545939 17.73195748031496)"/></g><defs><filter id="shadowFilter-p.21" filterUnits="userSpaceOnUse"><feGaussianBlur in="SourceAlpha" stdDeviation="2.0" result="blur"/><feComponentTransfer in="blur" color-interpolation-filters="sRGB"><feFuncR type="linear" slope="0" intercept="0.0"/><feFuncG type="linear" slope="0" intercept="0.0"/><feFuncB type="linear" slope="0" intercept="0.0"/><feFuncA type="linear" slope="0.5" intercept="0"/></feComponentTransfer></filter></defs><g id="p.21"><path fill="#ff79ca" d="m904.91327 16.521587l0 -35.310886l0 0c0 -6.084858 2.4172363 -11.920494 6.7198486 -16.223137c4.3026733 -4.3026466 10.138306 -6.719845 16.223145 -6.719845l166.78925 0c3.6621094E-4 0 7.324219E-4 3.0136108E-4 7.324219E-4 6.752014E-4l-7.324219E-4 81.196175l0 0c0 3.7384033E-4 -2.4414062E-4 6.752014E-4 -6.1035156E-4 6.752014E-4l-166.78864 -6.752014E-4l0 0c-12.671082 0 -22.942993 -10.271923 -22.942993 -22.942982z" fill-rule="evenodd"/></g><g filter="url(#shadowFilter-p.22)"><use xlink:href="#p.22" transform="matrix(1.0 0.0 0.0 1.0 19.01519632545939 17.73195748031496)"/></g><defs><filter id="shadowFilter-p.22" filterUnits="userSpaceOnUse"><feGaussianBlur in="SourceAlpha" stdDeviation="2.0" result="blur"/><feComponentTransfer in="blur" color-interpolation-filters="sRGB"><feFuncR type="linear" slope="0" intercept="0.0"/><feFuncG type="linear" slope="0" intercept="0.0"/><feFuncB type="linear" slope="0" intercept="0.0"/><feFuncA type="linear" slope="0.5" intercept="0"/></feComponentTransfer></filter></defs><g id="p.22"><path fill="#ff79ca" d="m1283.5642 -18.789299l0 35.310886l0 0c0 6.084856 -2.4172363 11.920494 -6.7198486 16.223137c-4.3026123 4.302643 -10.138306 6.719845 -16.223145 6.719845l-166.7893 0c-3.6621094E-4 0 -7.324219E-4 -3.0136108E-4 -7.324219E-4 -6.752014E-4l7.324219E-4 -81.196175l0 0c0 -3.7384033E-4 2.4414062E-4 -6.790161E-4 7.324219E-4 -6.790161E-4l166.78857 6.790161E-4l0 0c12.6710205 0 22.942993 10.271923 22.942993 22.942982z" fill-rule="evenodd"/></g><g filter="url(#shadowFilter-p.23)"><use xlink:href="#p.23" transform="matrix(1.0 0.0 0.0 1.0 10.181002099737507 18.36701391076116)"/></g><defs><filter id="shadowFilter-p.23" filterUnits="userSpaceOnUse"><feGaussianBlur in="SourceAlpha" stdDeviation="2.0" result="blur"/><feComponentTransfer in="blur" color-interpolation-filters="sRGB"><feFuncR type="linear" slope="0" intercept="0.0"/><feFuncG type="linear" slope="0" intercept="0.0"/><feFuncB type="linear" slope="0" intercept="0.0"/><feFuncA type="linear" slope="0.5" intercept="0"/></feComponentTransfer></filter></defs><g id="p.23"><path fill="#ff79ca" d="m394.17847 -41.054573l0 0c0 -36.711716 31.516327 -66.47244 70.39371 -66.47244l0 0c18.669556 0 36.574463 7.0033264 49.77585 19.46933c13.201355 12.465996 20.617859 29.373524 20.617859 47.003113l0 0c0 36.711716 -31.516357 66.47244 -70.39371 66.47244l0 0c-38.87738 0 -70.39371 -29.760725 -70.39371 -66.47244z" fill-rule="evenodd"/></g></g></svg>