<svg version="1.1" viewBox="0.0 0.0 960.0 960.0" fill="none" stroke="none" stroke-linecap="square" stroke-miterlimit="10" xmlns:xlink="http://www.w3.org/1999/xlink" xmlns="http://www.w3.org/2000/svg"><clipPath id="p.0"><path d="m0 0l960.0 0l0 960.0l-960.0 0l0 -960.0z" clip-rule="nonzero"/></clipPath><g clip-path="url(#p.0)"><path fill="#ffffff" d="m0 0l960.0 0l0 960.0l-960.0 0z" fill-rule="evenodd"/><path fill="#eee436" d="m0 0l960.0 0l0 466.14172l-960.0 0z" fill-rule="evenodd"/><path stroke="#eee436" stroke-width="1.0" stroke-linejoin="round" stroke-linecap="butt" d="m0 0l960.0 0l0 466.14172l-960.0 0z" fill-rule="evenodd"/><path fill="#08868b" d="m0 466.14728l960.0 0l0 493.7953l-960.0 0z" fill-rule="evenodd"/><path stroke="#08868b" stroke-width="1.0" stroke-linejoin="round" stroke-linecap="butt" d="m0 466.14728l960.0 0l0 493.7953l-960.0 0z" fill-rule="evenodd"/><path fill="#000000" fill-opacity="0.0" d="m0 0l960.0 0l0 960.0l-960.0 0z" fill-rule="evenodd"/><path fill="#595959" d="m47.828125 247.19812q0 -9.0 3.109375 -17.671875q3.125 -8.671875 9.078125 -15.8125q5.96875 -7.140625 14.703125 -11.359375q8.734375 -4.234375 19.828125 -4.234375q13.171875 0 22.53125 6.03125q9.359375 6.03125 13.796875 15.453125l-7.625 4.71875q-3.1875 -6.515625 -8.046875 -10.328125q-4.84375 -3.8125 -10.328125 -5.46875q-5.46875 -1.671875 -10.875 -1.671875q-8.875 0 -15.671875 3.546875q-6.796875 3.53125 -11.4375 9.421875q-4.640625 5.890625 -7.0 13.171875q-2.359375 7.28125 -2.359375 14.765625q0 8.171875 2.765625 15.671875q2.78125 7.484375 7.765625 13.234375q5.0 5.75 11.71875 9.15625q6.734375 3.390625 14.625 3.390625q5.546875 0 11.375 -1.9375q5.828125 -1.9375 10.890625 -5.953125q5.0625 -4.03125 8.109375 -10.40625l8.03125 4.15625q-3.046875 7.34375 -9.421875 12.484375q-6.375 5.125 -14.21875 7.765625q-7.828125 2.625 -15.3125 2.625q-10.125 0 -18.59375 -4.359375q-8.453125 -4.375 -14.625 -11.65625q-6.15625 -7.28125 -9.484375 -16.359375q-3.328125 -9.078125 -3.328125 -18.375zm130.4775 51.3125q-7.765625 0 -14.359375 -2.984375q-6.578125 -2.984375 -11.375 -8.171875q-4.78125 -5.203125 -7.421875 -11.921875q-2.625 -6.734375 -2.625 -14.21875q0 -7.765625 2.625 -14.484375q2.640625 -6.734375 7.484375 -11.9375q4.859375 -5.203125 11.453125 -8.171875q6.59375 -2.984375 14.34375 -2.984375q7.765625 0 14.28125 2.984375q6.53125 2.96875 11.375 8.171875q4.859375 5.203125 7.484375 11.9375q2.640625 6.71875 2.640625 14.484375q0 7.484375 -2.640625 14.21875q-2.625 6.71875 -7.421875 11.921875q-4.78125 5.1875 -11.375 8.171875q-6.578125 2.984375 -14.46875 2.984375zm-26.21875 -37.15625q0 8.03125 3.53125 14.625q3.546875 6.578125 9.5 10.390625q5.96875 3.8125 13.1875 3.8125q7.203125 0 13.15625 -3.875q5.96875 -3.890625 9.578125 -10.609375q3.609375 -6.71875 3.609375 -14.625q0 -8.046875 -3.609375 -14.703125q-3.609375 -6.65625 -9.578125 -10.53125q-5.953125 -3.890625 -13.15625 -3.890625q-7.21875 0 -13.109375 4.03125q-5.890625 4.015625 -9.5 10.609375q-3.609375 6.578125 -3.609375 14.765625zm138.65666 35.765625l-9.421875 0l0 -40.34375q0 -12.765625 -3.75 -18.65625q-3.734375 -5.890625 -11.78125 -5.890625q-5.546875 0 -10.95314 2.703125q-5.40625 2.703125 -9.5 7.359375q-4.09375 4.640625 -5.890625 10.59375l0 44.234375l-9.421875 0l0 -72.234375l8.59375 0l0 16.359375q2.90625 -5.265625 7.625 -9.21875q4.71875 -3.953125 10.67189 -6.171875q5.96875 -2.21875 12.34375 -2.21875q5.953125 0 10.109375 2.21875q4.171875 2.21875 6.65625 6.3125q2.5 4.078125 3.609375 9.84375q1.109375 5.75 1.109375 12.8125l0 42.296875zm80.83652 0l-9.421875 0l0 -40.34375q0 -12.765625 -3.75 -18.65625q-3.734375 -5.890625 -11.78125 -5.890625q-5.546875 0 -10.953125 2.703125q-5.40625 2.703125 -9.5 7.359375q-4.09375 4.640625 -5.890625 10.59375l0 44.234375l-9.421875 0l0 -72.234375l8.59375 0l0 16.359375q2.90625 -5.265625 7.625 -9.21875q4.71875 -3.953125 10.671875 -6.171875q5.96875 -2.21875 12.34375 -2.21875q5.953125 0 10.109375 2.21875q4.171875 2.21875 6.65625 6.3125q2.5 4.078125 3.609375 9.84375q1.109375 5.75 1.109375 12.8125l0 42.296875zm51.305267 1.390625q-7.765625 0 -14.421875 -2.984375q-6.65625 -2.984375 -11.515625 -8.171875q-4.84375 -5.203125 -7.546875 -12.0q-2.703125 -6.796875 -2.703125 -14.5625q0 -10.125 4.640625 -18.578125q4.65625 -8.453125 12.828125 -13.515625q8.1875 -5.0625 18.578125 -5.0625q10.6875 0 18.65625 5.125q7.96875 5.125 12.546875 13.515625q4.578125 8.390625 4.578125 18.375q0 1.109375 0 2.15625q0 1.03125 -0.140625 1.59375l-61.84375 0q0.703125 7.765625 4.375 13.796875q3.671875 6.03125 9.5625 9.5625q5.890625 3.53125 12.828125 3.53125q7.0625 0 13.375 -3.59375q6.3125 -3.609375 8.8125 -9.4375l8.171875 2.21875q-2.21875 5.125 -6.796875 9.296875q-4.5625 4.15625 -10.734375 6.453125q-6.171875 2.28125 -13.25 2.28125zm-26.625 -40.90625l53.390625 0q-0.5625 -7.90625 -4.234375 -13.859375q-3.671875 -5.96875 -9.5625 -9.359375q-5.890625 -3.40625 -12.96875 -3.40625q-7.0625 0 -12.890625 3.40625q-5.828125 3.390625 -9.5 9.421875q-3.671875 6.03125 -4.234375 13.796875zm108.1568 40.90625q-7.90625 0 -14.5 -2.984375q-6.578125 -2.984375 -11.5 -8.25q-4.921875 -5.265625 -7.625 -12.0625q-2.703125 -6.796875 -2.703125 -14.421875q0 -10.265625 4.578125 -18.71875q4.578125 -8.453125 12.75 -13.4375q8.1875 -5.0 18.859375 -5.0q10.125 0 17.890625 4.640625q7.765625 4.640625 11.5 12.546875l-9.140625 2.921875q-3.046875 -5.546875 -8.53125 -8.671875q-5.46875 -3.125 -12.125 -3.125q-7.21875 0 -13.1875 3.75q-5.953125 3.734375 -9.5 10.265625q-3.53125 6.515625 -3.53125 14.828125q0 8.1875 3.609375 14.84375q3.609375 6.640625 9.5625 10.59375q5.96875 3.953125 13.171875 3.953125q4.71875 0 9.078125 -1.65625q4.375 -1.671875 7.625 -4.515625q3.265625 -2.84375 4.375 -6.15625l9.296875 2.765625q-1.9375 5.125 -6.453125 9.21875q-4.5 4.09375 -10.53125 6.390625q-6.03125 2.28125 -12.96875 2.28125zm79.45032 -4.859375q-1.109375 0.421875 -3.46875 1.53125q-2.359375 1.109375 -5.6875 1.9375q-3.328125 0.828125 -7.203125 0.828125q-4.015625 0 -7.5625 -1.515625q-3.53125 -1.53125 -5.609375 -4.640625q-2.078125 -3.125 -2.078125 -7.703125l0 -51.71875l-9.984375 0l0 -7.484375l9.984375 0l0 -24.40625l9.421875 0l0 24.40625l16.640625 0l0 7.484375l-16.640625 0l0 49.078125q0.28125 3.890625 2.84375 5.828125q2.5625 1.9375 5.890625 1.9375q3.890625 0 7.078125 -1.3125q3.1875 -1.3125 3.875 -1.875l2.5 7.625zm41.326843 4.859375q-7.765625 0 -14.359375 -2.984375q-6.578125 -2.984375 -11.375 -8.171875q-4.78125 -5.203125 -7.421875 -11.921875q-2.625 -6.734375 -2.625 -14.21875q0 -7.765625 2.625 -14.484375q2.640625 -6.734375 7.484375 -11.9375q4.859375 -5.203125 11.453125 -8.171875q6.59375 -2.984375 14.34375 -2.984375q7.765625 0 14.28125 2.984375q6.53125 2.96875 11.375 8.171875q4.859375 5.203125 7.484375 11.9375q2.640625 6.71875 2.640625 14.484375q0 7.484375 -2.640625 14.21875q-2.625 6.71875 -7.421875 11.921875q-4.78125 5.1875 -11.375 8.171875q-6.578125 2.984375 -14.46875 2.984375zm-26.21875 -37.15625q0 8.03125 3.53125 14.625q3.546875 6.578125 9.5 10.390625q5.96875 3.8125 13.1875 3.8125q7.203125 0 13.15625 -3.875q5.96875 -3.890625 9.578125 -10.609375q3.609375 -6.71875 3.609375 -14.625q0 -8.046875 -3.609375 -14.703125q-3.609375 -6.65625 -9.578125 -10.53125q-5.953125 -3.890625 -13.15625 -3.890625q-7.21875 0 -13.109375 4.03125q-5.890625 4.015625 -9.5 10.609375q-3.609375 6.578125 -3.609375 14.765625zm113.9848 -28.15625q-9.4375 0.28125 -16.578125 5.28125q-7.140625 4.984375 -10.046875 13.71875l0 44.921875l-9.421875 0l0 -72.234375l8.859375 0l0 17.328125q3.75 -7.625 9.921875 -12.34375q6.171875 -4.71875 13.109375 -5.265625q1.375 -0.140625 2.40625 -0.140625q1.046875 0 1.75 0.140625l0 8.59375zm7.898926 -8.3125l2.359375 -14.84375l-3.328125 0l0 -14.140625l9.15625 0l0 14.140625l-3.46875 14.84375l-4.71875 0zm42.290283 73.625q-8.875 0 -16.5 -2.90625q-7.625 -2.921875 -13.171875 -8.890625l3.875 -6.65625q6.109375 5.6875 12.28125 8.265625q6.171875 2.5625 13.09375 2.5625q8.46875 0 13.734375 -3.390625q5.265625 -3.40625 5.265625 -9.78125q0 -4.296875 -2.5625 -6.578125q-2.5625 -2.296875 -7.359375 -3.75q-4.78125 -1.46875 -11.421875 -3.125q-7.5 -2.078125 -12.5625 -4.359375q-5.046875 -2.296875 -7.625 -5.828125q-2.5625 -3.546875 -2.5625 -9.21875q0 -7.078125 3.53125 -11.71875q3.546875 -4.65625 9.71875 -7.078125q6.171875 -2.421875 13.796875 -2.421875q8.3125 0 14.6875 2.640625q6.375 2.625 10.40625 7.34375l-4.578125 6.375q-3.890625 -4.4375 -9.234375 -6.578125q-5.328125 -2.15625 -11.84375 -2.15625q-4.4375 0 -8.46875 1.1875q-4.015625 1.171875 -6.578125 3.875q-2.5625 2.703125 -2.5625 7.421875q0 3.875 1.9375 6.03125q1.953125 2.140625 5.828125 3.59375q3.890625 1.453125 9.5625 3.125q8.1875 2.21875 14.28125 4.515625q6.109375 2.28125 9.4375 5.890625q3.328125 3.59375 3.328125 10.109375q0 10.125 -7.625 15.8125q-7.625 5.6875 -20.109375 5.6875z" fill-rule="nonzero"/><path fill="#ffffff" d="m111.875 682.72q-2.078125 -2.359375 -4.859375 -4.234375q-2.765625 -1.875 -6.234375 -3.25q-3.453125 -1.390625 -7.40625 -2.21875q-3.953125 -0.84375 -8.390625 -0.84375q-12.890625 0 -18.921875 4.921875q-6.03125 4.921875 -6.03125 13.390625q0 5.8125 2.828125 9.140625q2.84375 3.328125 8.9375 5.421875q6.109375 2.078125 15.546875 4.296875q10.53125 2.203125 18.15625 5.265625q7.625 3.046875 11.78125 8.25q4.171875 5.203125 4.171875 14.0625q0 6.796875 -2.640625 11.796875q-2.625 4.984375 -7.34375 8.3125q-4.71875 3.328125 -11.234375 4.921875q-6.515625 1.59375 -14.28125 1.59375q-7.625 0 -14.625 -1.59375q-7.0 -1.59375 -13.25 -4.703125q-6.234375 -3.125 -11.640625 -7.984375l4.859375 -7.90625q2.625 2.78125 6.296875 5.203125q3.671875 2.421875 8.171875 4.375q4.515625 1.9375 9.71875 2.984375q5.203125 1.03125 10.75 1.03125q11.78125 0 18.359375 -4.296875q6.59375 -4.296875 6.59375 -12.75q0 -6.109375 -3.328125 -9.78125q-3.328125 -3.671875 -9.984375 -6.03125q-6.65625 -2.359375 -16.359375 -4.578125q-10.265625 -2.359375 -17.34375 -5.265625q-7.0625 -2.90625 -10.59375 -7.6875q-3.53125 -4.796875 -3.53125 -12.703125q0 -9.140625 4.5 -15.453125q4.515625 -6.3125 12.40625 -9.5625q7.90625 -3.265625 18.171875 -3.265625q6.515625 0 12.125 1.328125q5.625 1.3125 10.40625 3.8125q4.78125 2.484375 8.9375 6.234375l-4.71875 7.765625zm55.883026 81.390625q-7.765625 0 -14.421875 -2.984375q-6.65625 -2.984375 -11.515625 -8.171875q-4.84375 -5.203125 -7.546875 -12.0q-2.703125 -6.796875 -2.703125 -14.5625q0 -10.125 4.640625 -18.578125q4.65625 -8.453125 12.828125 -13.515625q8.1875 -5.0625 18.578125 -5.0625q10.6875 0 18.65625 5.125q7.96875 5.125 12.546875 13.515625q4.578125 8.390625 4.578125 18.375q0 1.109375 0 2.15625q0 1.03125 -0.140625 1.59375l-61.84375 0q0.703125 7.765625 4.375 13.796875q3.671875 6.03125 9.5625 9.5625q5.890625 3.53125 12.828125 3.53125q7.0625 0 13.375 -3.59375q6.3125 -3.609375 8.8125 -9.4375l8.171875 2.21875q-2.21875 5.125 -6.796875 9.296875q-4.5625 4.15625 -10.734375 6.453125q-6.171875 2.28125 -13.25 2.28125zm-26.625 -40.90625l53.390625 0q-0.5625 -7.90625 -4.234375 -13.859375q-3.671875 -5.96875 -9.5625 -9.359375q-5.890625 -3.40625 -12.96875 -3.40625q-7.0625 0 -12.890625 3.40625q-5.828125 3.390625 -9.5 9.421875q-3.671875 6.03125 -4.234375 13.796875zm112.875534 -24.40625q-9.4375 0.28125 -16.578125 5.28125q-7.140625 4.984375 -10.046875 13.71875l0 44.921875l-9.421875 0l0 -72.234375l8.859375 0l0 17.328125q3.75 -7.625 9.921875 -12.34375q6.171875 -4.71875 13.109375 -5.265625q1.375 -0.140625 2.40625 -0.140625q1.046875 0 1.75 0.140625l0 8.59375zm34.10582 63.921875l-29.25 -72.234375l9.84375 0l24.671875 62.8125l24.828125 -62.8125l9.28125 0l-29.25 72.234375l-10.125 0zm52.41931 0l0 -72.234375l9.421875 0l0 72.234375l-9.421875 0zm0 -87.359375l0 -13.859375l9.421875 0l0 13.859375l-9.421875 0zm61.555176 88.75q-7.90625 0 -14.5 -2.984375q-6.578125 -2.984375 -11.5 -8.25q-4.921875 -5.265625 -7.625 -12.0625q-2.703125 -6.796875 -2.703125 -14.421875q0 -10.265625 4.578125 -18.71875q4.578125 -8.453125 12.75 -13.4375q8.1875 -5.0 18.859375 -5.0q10.125 0 17.890625 4.640625q7.765625 4.640625 11.5 12.546875l-9.140625 2.921875q-3.046875 -5.546875 -8.53125 -8.671875q-5.46875 -3.125 -12.125 -3.125q-7.21875 0 -13.1875 3.75q-5.953125 3.734375 -9.5 10.265625q-3.53125 6.515625 -3.53125 14.828125q0 8.1875 3.609375 14.84375q3.609375 6.640625 9.5625 10.59375q5.96875 3.953125 13.171875 3.953125q4.71875 0 9.078125 -1.65625q4.375 -1.671875 7.625 -4.515625q3.265625 -2.84375 4.375 -6.15625l9.296875 2.765625q-1.9375 5.125 -6.453125 9.21875q-4.5 4.09375 -10.53125 6.390625q-6.03125 2.28125 -12.96875 2.28125zm75.28827 0q-7.765625 0 -14.421875 -2.984375q-6.65625 -2.984375 -11.515625 -8.171875q-4.84375 -5.203125 -7.546875 -12.0q-2.703125 -6.796875 -2.703125 -14.5625q0 -10.125 4.640625 -18.578125q4.65625 -8.453125 12.828125 -13.515625q8.1875 -5.0625 18.578125 -5.0625q10.6875 0 18.65625 5.125q7.96875 5.125 12.546875 13.515625q4.578125 8.390625 4.578125 18.375q0 1.109375 0 2.15625q0 1.03125 -0.140625 1.59375l-61.84375 0q0.703125 7.765625 4.375 13.796875q3.671875 6.03125 9.5625 9.5625q5.890625 3.53125 12.828125 3.53125q7.0625 0 13.375 -3.59375q6.3125 -3.609375 8.8125 -9.4375l8.171875 2.21875q-2.21875 5.125 -6.796875 9.296875q-4.5625 4.15625 -10.734375 6.453125q-6.171875 2.28125 -13.25 2.28125zm-26.625 -40.90625l53.390625 0q-0.5625 -7.90625 -4.234375 -13.859375q-3.671875 -5.96875 -9.5625 -9.359375q-5.890625 -3.40625 -12.96875 -3.40625q-7.0625 0 -12.890625 3.40625q-5.828125 3.390625 -9.5 9.421875q-3.671875 6.03125 -4.234375 13.796875z" fill-rule="nonzero"/><g filter="url(#shadowFilter-p.1)"><use xlink:href="#p.1" transform="matrix(1.0 0.0 0.0 1.0 19.746549868766405 18.41395564304464)"/></g><defs><filter id="shadowFilter-p.1" filterUnits="userSpaceOnUse"><feGaussianBlur in="SourceAlpha" stdDeviation="2.0" result="blur"/><feComponentTransfer in="blur" color-interpolation-filters="sRGB"><feFuncR type="linear" slope="0" intercept="0.0"/><feFuncG type="linear" slope="0" intercept="0.0"/><feFuncB type="linear" slope="0" intercept="0.0"/><feFuncA type="linear" slope="0.5" intercept="0"/></feComponentTransfer></filter></defs><g id="p.1"><path fill="#08868b" d="m77.38437 376.56284l51.228485 0l0 0c7.102356 0 13.913818 2.8214111 18.935944 7.8435364c5.0221252 5.0221252 7.843521 11.833557 7.843521 18.935913l0 61.157562c0 4.8828125E-4 -3.9672852E-4 8.8500977E-4 -8.69751E-4 8.8500977E-4l-104.78653 -8.8500977E-4l0 0c-4.8446655E-4 0 -8.735657E-4 -3.9672852E-4 -8.735657E-4 -8.8500977E-4l8.735657E-4 -61.156677l0 0c0 -14.789886 11.989571 -26.77945 26.779453 -26.77945z" fill-rule="evenodd"/></g><g filter="url(#shadowFilter-p.2)"><use xlink:href="#p.2" transform="matrix(1.0 0.0 0.0 1.0 19.015196325459314 17.731957480314982)"/></g><defs><filter id="shadowFilter-p.2" filterUnits="userSpaceOnUse"><feGaussianBlur in="SourceAlpha" stdDeviation="2.0" result="blur"/><feComponentTransfer in="blur" color-interpolation-filters="sRGB"><feFuncR type="linear" slope="0" intercept="0.0"/><feFuncG type="linear" slope="0" intercept="0.0"/><feFuncB type="linear" slope="0" intercept="0.0"/><feFuncA type="linear" slope="0.5" intercept="0"/></feComponentTransfer></filter></defs><g id="p.2"><path fill="#eee436" d="m126.37973 552.47156l-46.761284 0l0 0c-7.6947403 0 -15.074326 -3.0567017 -20.515331 -8.497742c-5.4410057 -5.440979 -8.49773 -12.820557 -8.49773 -20.51532l0 -58.92395c0 -4.5776367E-4 3.9291382E-4 -8.544922E-4 8.735657E-4 -8.544922E-4l104.78653 8.544922E-4l0 0c4.7302246E-4 0 8.69751E-4 3.9672852E-4 8.69751E-4 8.8500977E-4l-8.69751E-4 58.923065l0 0c0 16.023499 -12.9895935 29.013062 -29.013062 29.013062z" fill-rule="evenodd"/></g><g filter="url(#shadowFilter-p.3)"><use xlink:href="#p.3" transform="matrix(1.0 0.0 0.0 1.0 10.181002099737544 18.36701391076118)"/></g><defs><filter id="shadowFilter-p.3" filterUnits="userSpaceOnUse"><feGaussianBlur in="SourceAlpha" stdDeviation="2.0" result="blur"/><feComponentTransfer in="blur" color-interpolation-filters="sRGB"><feFuncR type="linear" slope="0" intercept="0.0"/><feFuncG type="linear" slope="0" intercept="0.0"/><feFuncB type="linear" slope="0" intercept="0.0"/><feFuncA type="linear" slope="0.5" intercept="0"/></feComponentTransfer></filter></defs><g id="p.3"><path fill="#eee436" d="m259.15732 471.23862l0 0c0 -52.288757 40.68216 -94.677185 90.86615 -94.677185l0 0c24.099213 0 47.211365 9.974884 64.252075 27.730316c17.04071 17.755402 26.614075 41.836914 26.614075 66.94687l0 0c0 52.288727 -40.68216 94.677155 -90.86615 94.677155l0 0c-50.18399 0 -90.86615 -42.388428 -90.86615 -94.677155z" fill-rule="evenodd"/></g><g filter="url(#shadowFilter-p.4)"><use xlink:href="#p.4" transform="matrix(1.0 0.0 0.0 1.0 10.181002099737507 18.36701391076118)"/></g><defs><filter id="shadowFilter-p.4" filterUnits="userSpaceOnUse"><feGaussianBlur in="SourceAlpha" stdDeviation="2.0" result="blur"/><feComponentTransfer in="blur" color-interpolation-filters="sRGB"><feFuncR type="linear" slope="0" intercept="0.0"/><feFuncG type="linear" slope="0" intercept="0.0"/><feFuncB type="linear" slope="0" intercept="0.0"/><feFuncA type="linear" slope="0.5" intercept="0"/></feComponentTransfer></filter></defs><g id="p.4"><path fill="#08868b" d="m544.6531 471.23862l0 0c0 -52.288757 40.68213 -94.677185 90.86615 -94.677185l0 0c24.099182 0 47.211365 9.974884 64.252075 27.730316c17.04071 17.755402 26.614075 41.836914 26.614075 66.94687l0 0c0 52.288727 -40.68219 94.677155 -90.86615 94.677155l0 0c-50.18402 0 -90.86615 -42.388428 -90.86615 -94.677155z" fill-rule="evenodd"/></g><g filter="url(#shadowFilter-p.5)"><use xlink:href="#p.5" transform="matrix(1.0 0.0 0.0 1.0 19.01519632545939 17.731957480314982)"/></g><defs><filter id="shadowFilter-p.5" filterUnits="userSpaceOnUse"><feGaussianBlur in="SourceAlpha" stdDeviation="2.0" result="blur"/><feComponentTransfer in="blur" color-interpolation-filters="sRGB"><feFuncR type="linear" slope="0" intercept="0.0"/><feFuncG type="linear" slope="0" intercept="0.0"/><feFuncB type="linear" slope="0" intercept="0.0"/><feFuncA type="linear" slope="0.5" intercept="0"/></feComponentTransfer></filter></defs><g id="p.5"><path fill="#08868b" d="m834.6228 116.1005l57.098633 0l0 0c6.3239136 0 12.388855 2.512169 16.860535 6.983856c4.4716797 4.4716873 6.9838257 10.536598 6.9838257 16.860512l0 325.6989c0 4.8828125E-4 -3.6621094E-4 8.8500977E-4 -8.544922E-4 8.8500977E-4l-104.7865 -8.8500977E-4l0 0c-4.8828125E-4 0 -9.1552734E-4 -3.6621094E-4 -9.1552734E-4 -8.544922E-4l9.1552734E-4 -325.69806l0 0c0 -13.168877 10.675476 -23.844368 23.84436 -23.844368z" fill-rule="evenodd"/></g><g filter="url(#shadowFilter-p.6)"><use xlink:href="#p.6" transform="matrix(1.0 0.0 0.0 1.0 19.01519632545939 17.731957480314907)"/></g><defs><filter id="shadowFilter-p.6" filterUnits="userSpaceOnUse"><feGaussianBlur in="SourceAlpha" stdDeviation="2.0" result="blur"/><feComponentTransfer in="blur" color-interpolation-filters="sRGB"><feFuncR type="linear" slope="0" intercept="0.0"/><feFuncG type="linear" slope="0" intercept="0.0"/><feFuncB type="linear" slope="0" intercept="0.0"/><feFuncA type="linear" slope="0.5" intercept="0"/></feComponentTransfer></filter></defs><g id="p.6"><path fill="#eee436" d="m885.958 794.82825l-45.569946 0l0 0c-7.852722 0 -15.38385 -3.1194458 -20.936523 -8.67218c-5.5527344 -5.5526733 -8.672241 -13.083801 -8.672241 -20.936523l0 -299.65112c0 -4.5776367E-4 4.272461E-4 -8.544922E-4 9.1552734E-4 -8.544922E-4l104.7865 8.544922E-4l0 0c4.8828125E-4 0 8.544922E-4 3.9672852E-4 8.544922E-4 8.8500977E-4l-8.544922E-4 299.65024l0 0c0 16.352478 -13.256287 29.608704 -29.608704 29.608704z" fill-rule="evenodd"/></g></g></svg>